<svg width="26" height="23" viewBox="0 0 26 23" fill="none" xmlns="http://www.w3.org/2000/svg">
<path d="M0.507812 1.74226C0.25 2.93757 0.15625 4.5196 0.15625 5.57429C0.15625 14.4454 5.45312 20.3048 13.5391 20.3048C17.5117 20.3048 19.8672 18.5352 21.0391 17.2344C22 18.5938 22.5391 20.0469 23.1484 21.9688C23.3242 22.543 23.7344 22.7774 24.1914 22.7774C25.0938 22.7774 25.832 21.9923 25.832 20.9141C25.832 19.2852 23.4648 16.4259 22.2344 15.2774C17.0195 10.4493 9.09766 13.3438 7.11719 8.09382C6.97656 7.71882 7.36328 7.41413 7.71484 7.7657C11.7812 11.9493 17.0898 8.4571 22.1406 13.086C22.5859 13.4962 23.1367 13.2852 23.2188 12.8048C23.2773 12.4766 23.3125 11.9376 23.3125 11.3985C23.3125 5.65632 19.3281 2.77351 13.5742 2.77351C11.6758 2.77351 9.44922 3.25398 7.71484 3.25398C5.85156 3.25398 3.74219 3.11335 2.04297 1.32038C1.50391 0.757884 0.707031 0.875071 0.507812 1.74226Z" fill="#B25000"/>
</svg>
